HIERARCHY
ROOT Hips
{
	OFFSET 0.00000 0.00000 0.00000
	CHANNELS 6 Xposition Yposition Zposition Zrotation Yrotation Xrotation 
	JOINT LHipJoint
	{
		OFFSET 0 0 0
		CHANNELS 3 Zrotation Yrotation Xrotation
		JOINT LeftUpLeg
		{
			OFFSET 1.62964 -1.40469 0.78906
			CHANNELS 3 Zrotation Yrotation Xrotation
			JOINT LeftLeg
			{
				OFFSET 2.29640 -6.30932 0.00000
				CHANNELS 3 Zrotation Yrotation Xrotation
				JOINT LeftFoot
				{
					OFFSET 2.29451 -6.30412 0.00000
					CHANNELS 3 Zrotation Yrotation Xrotation
					JOINT LeftToeBase
					{
						OFFSET 0.03611 -0.09921 1.56387
						CHANNELS 3 Zrotation Yrotation Xrotation
						End Site
						{
							OFFSET 0.00000 -0.00000 0.80291
						}
					}
				}
			}
		}
	}
	JOINT RHipJoint
	{
		OFFSET 0 0 0
		CHANNELS 3 Zrotation Yrotation Xrotation
		JOINT RightUpLeg
		{
			OFFSET -1.73712 -1.40469 0.78906
			CHANNELS 3 Zrotation Yrotation Xrotation
			JOINT RightLeg
			{
				OFFSET -2.28137 -6.26801 0.00000
				CHANNELS 3 Zrotation Yrotation Xrotation
				JOINT RightFoot
				{
					OFFSET -2.28681 -6.28298 0.00000
					CHANNELS 3 Zrotation Yrotation Xrotation
					JOINT RightToeBase
					{
						OFFSET -0.15927 -0.43759 1.61103
						CHANNELS 3 Zrotation Yrotation Xrotation
						End Site
						{
							OFFSET -0.00000 -0.00000 0.84630
						}
					}
				}
			}
		}
	}
	JOINT LowerBack
	{
		OFFSET 0 0 0
		CHANNELS 3 Zrotation Yrotation Xrotation
		JOINT Spine
		{
			OFFSET -0.04227 2.04338 -0.00225
			CHANNELS 3 Zrotation Yrotation Xrotation
			JOINT Spine1
			{
				OFFSET -0.02148 2.04482 -0.04273
				CHANNELS 3 Zrotation Yrotation Xrotation
				JOINT Neck
				{
					OFFSET 0 0 0
					CHANNELS 3 Zrotation Yrotation Xrotation
					JOINT Neck1
					{
						OFFSET 0.09180 1.44629 0.19359
						CHANNELS 3 Zrotation Yrotation Xrotation
						JOINT Head
						{
							OFFSET 0.00887 1.40645 0.14750
							CHANNELS 3 Zrotation Yrotation Xrotation
							End Site
							{
								OFFSET -0.00669 1.50671 0.03707
							}
						}
					}
				}
				JOINT LeftShoulder
				{
					OFFSET 0 0 0
					CHANNELS 3 Zrotation Yrotation Xrotation
					JOINT LeftArm
					{
						OFFSET 2.17674 1.86763 -0.06520
						CHANNELS 3 Zrotation Yrotation Xrotation
						JOINT LeftForeArm
						{
							OFFSET 4.65776 -0.00000 0.00000
							CHANNELS 3 Zrotation Yrotation Xrotation
							JOINT LeftHand
							{
								OFFSET 3.55539 -0.00000 0.00000
								CHANNELS 3 Zrotation Yrotation Xrotation
								JOINT LeftFingerBase
								{
									OFFSET 0 0 0
									CHANNELS 3 Zrotation Yrotation Xrotation
									JOINT LeftHandIndex1
									{
										OFFSET 0.70726 -0.00000 0.00000
										CHANNELS 3 Zrotation Yrotation Xrotation
										End Site
										{
											OFFSET 0.57022 -0.00000 0.00000
										}
									}
								}
								JOINT LThumb
								{
									OFFSET 0 0 0
									CHANNELS 3 Zrotation Yrotation Xrotation
									End Site
									{
										OFFSET 0.57892 -0.00000 0.57892
									}
								}
							}
						}
					}
				}
				JOINT RightShoulder
				{
					OFFSET 0 0 0
					CHANNELS 3 Zrotation Yrotation Xrotation
					JOINT RightArm
					{
						OFFSET -2.80694 1.55459 -0.32496
						CHANNELS 3 Zrotation Yrotation Xrotation
						JOINT RightForeArm
						{
							OFFSET -4.71925 -0.00000 -0.00000
							CHANNELS 3 Zrotation Yrotation Xrotation
							JOINT RightHand
							{
								OFFSET -3.56990 -0.00000 0.00000
								CHANNELS 3 Zrotation Yrotation Xrotation
								JOINT RightFingerBase
								{
									OFFSET 0 0 0
									CHANNELS 3 Zrotation Yrotation Xrotation
									JOINT RightHandIndex1
									{
										OFFSET -0.50776 -0.00000 0.00000
										CHANNELS 3 Zrotation Yrotation Xrotation
										End Site
										{
											OFFSET -0.40937 -0.00000 0.00000
										}
									}
								}
								JOINT RThumb
								{
									OFFSET 0 0 0
									CHANNELS 3 Zrotation Yrotation Xrotation
									End Site
									{
										OFFSET -0.41562 -0.00000 0.41562
									}
								}
							}
						}
					}
				}
			}
		}
	}
}
MOTION
Frames: 13
Frame Time: .0083333
9.3615 16.3431 19.9586 0 0 0 0 0 0 -21 0 0 0 0 0 0 0 0 0 0 0 0 0 0 21 0 0 0 0 0 0 0 0 0 0 0 0 0 0 0 0 0 0 0 0 0 0 -16 0 0 21 0 0 11 0 0 0 -8 0 0 0 0 0 0 0 0 0 0 0 0 0 0 0 0 0 0 0 0 8 0 0 0 0 0 0 0 0 0 0 0 0 0 0 0 0 0
9.3615 16.3431 19.9586 178.5140 -3.8420 -153.8010 0.0000 0.0000 0.0000 -17.8103 -17.9895 -20.0621 0.2384 3.1423 8.6752 0.1211 -4.5284 -6.5043 1.3117 -7.2547 -20.4722 0.0000 0.0000 0.0000 18.7804 13.4148 -18.2501 -0.0672 -1.6720 4.6000 -1.0409 -1.0863 -19.6992 -2.2368 9.3429 -26.8740 -5.5063 -1.9365 -28.1423 0.0978 -1.5382 -2.3853 2.6341 -1.3151 13.1090 -3.6237 -3.2475 -0.1387 7.3767 -4.5003 -12.2955 3.2884 -2.6800 -3.7501 -0.0000 -0.0000 0.0000 -85.1356 -2.1222 22.4127 8.9840 -15.1350 -1.1959 -0.0000 -0.0000 7.7158 21.8105 -11.7964 -4.6770 -7.1250 0.0000 -0.0000 -3.7446 17.3191 2.4654 -0.0000 -0.0000 0.0000 91.9023 -4.7504 -4.2109 -11.2334 18.6451 -1.8498 0.0000 0.0000 11.4845 -10.6885 -53.5287 8.6305 7.1250 -0.0000 -0.0000 69.3427 -75.3776 -54.6429
9.3598 16.3229 19.9680 178.7090 -3.7621 -152.9230 0.0000 0.0000 0.0000 -17.1966 -18.3619 -21.2339 0.2536 3.2404 8.9488 0.1227 -4.4292 -6.5140 1.2989 -7.2205 -20.3702 0.0000 0.0000 0.0000 18.6788 13.9292 -19.4763 -0.0814 -1.8399 5.0635 -1.0494 -1.0157 -19.7496 -2.1713 9.2142 -26.4676 -5.2894 -1.8508 -29.0322 0.2172 -1.5084 -2.1821 2.4689 -1.2995 12.9996 -3.2503 -3.1938 0.1120 7.1389 -4.4733 -12.9796 3.1755 -2.7055 -4.0555 -0.0000 0.0000 0.0000 -85.4966 -2.2009 18.7342 8.5463 -14.4344 -1.0842 -0.0000 -0.0000 11.3454 21.8383 -11.5554 -4.5896 -7.1250 0.0000 -0.0000 -3.7165 17.5738 2.4261 -0.0000 0.0000 0.0000 91.8542 -4.8685 -4.5495 -11.1449 18.5100 -1.8216 0.0000 0.0000 11.5184 -11.5122 -51.1908 9.0182 7.1250 -0.0000 -0.0000 60.4876 -74.9057 -46.1630
9.3537 16.3038 19.9691 178.8160 -3.5289 -152.2330 0.0000 0.0000 0.0000 -16.8701 -18.5924 -22.0298 0.2569 3.2612 9.0069 0.1366 -4.1017 -6.7432 1.6059 -7.9918 -22.6892 0.0000 0.0000 0.0000 18.5315 14.2012 -20.4902 -0.0942 -1.9793 5.4485 -1.0526 -0.7934 -19.6921 -2.2370 9.3432 -26.8748 -5.1668 -1.7769 -29.7591 0.2442 -1.4720 -2.3114 2.4243 -1.3001 13.1723 -3.0079 -3.0668 0.4482 7.1368 -4.2932 -13.9499 2.8537 -2.6827 -3.9998 0.0000 0.0000 0.0000 -85.6582 -2.2679 16.0775 8.0185 -13.5828 -0.9565 -0.0000 -0.0000 13.7678 21.9901 -11.6053 -4.6444 -7.1250 0.0000 -0.0000 -3.6121 17.5068 2.3629 0.0000 0.0000 0.0000 91.7633 -5.0426 -4.6290 -11.0830 18.4154 -1.8021 0.0000 0.0000 11.5395 -12.7263 -47.6875 9.4812 7.1250 -0.0000 -0.0000 48.5352 -73.6092 -34.8581
9.3481 16.3015 19.9626 178.8530 -3.3521 -152.1880 0.0000 0.0000 0.0000 -16.8780 -18.6236 -21.9699 0.2536 3.2399 8.9475 0.1485 -3.8508 -6.9554 1.7661 -8.3608 -23.8155 0.0000 0.0000 0.0000 18.5329 14.1238 -20.6374 -0.0984 -2.0225 5.5678 -1.0523 -0.5949 -19.6127 -2.3414 9.5437 -27.5113 -5.1360 -1.7388 -29.8650 0.2612 -1.4326 -2.3038 2.4383 -1.2838 13.2251 -2.9709 -2.9784 0.5938 7.1060 -4.1900 -14.2664 2.8472 -2.6480 -4.1272 0.0000 -0.0000 0.0000 -85.7609 -2.2943 13.6579 7.4437 -12.6472 -0.8260 -0.0000 -0.0000 15.9784 22.1351 -11.7764 -4.7458 -7.1250 0.0000 -0.0000 -3.5172 17.3105 2.3157 0.0000 -0.0000 0.0000 91.6851 -5.0756 -5.3058 -10.9020 18.1379 -1.7453 0.0000 0.0000 12.0293 -13.6782 -43.7797 9.5581 7.1250 -0.0000 -0.0000 37.9611 -71.3560 -24.9037
9.3449 16.3001 19.9588 178.8880 -3.2716 -152.1560 0.0000 0.0000 0.0000 -16.8179 -18.7299 -21.9388 0.2535 3.2393 8.9457 0.1514 -3.7575 -7.0029 1.4449 -7.5989 -21.5023 0.0000 0.0000 0.0000 18.5581 14.0719 -20.7100 -0.0986 -2.0252 5.5752 -1.0484 -0.5102 -19.5458 -2.3697 9.5970 -27.6812 -5.1363 -1.7423 -29.8986 0.2881 -1.4341 -2.2731 2.4660 -1.2849 13.2765 -2.9727 -2.9298 0.6002 7.1509 -4.1380 -14.5052 2.8666 -2.6391 -4.2023 0.0000 -0.0000 0.0000 -85.8338 -2.4342 10.9439 6.8916 -11.7407 -0.7094 -0.0000 -0.0000 18.4753 22.0811 -11.6068 -4.6661 -7.1250 0.0000 -0.0000 -3.5485 17.4968 2.3219 0.0000 -0.0000 0.0000 91.6548 -4.9932 -6.3981 -10.7009 17.8283 -1.6832 0.0000 0.0000 12.8685 -13.7104 -45.2869 9.8357 7.1250 -0.0000 -0.0000 41.3287 -72.4356 -28.2429
9.3432 16.3000 19.9547 178.8460 -3.2394 -152.1910 0.0000 0.0000 0.0000 -16.8747 -18.7753 -21.8316 0.2496 3.2146 8.8769 0.1477 -3.7644 -6.9247 1.1998 -6.9498 -19.5669 0.0000 0.0000 0.0000 18.5254 13.9962 -20.6735 -0.0976 -2.0144 5.5455 -1.0387 -0.5169 -19.4581 -2.3602 9.5792 -27.6245 -5.2605 -1.8277 -29.9019 0.3327 -1.4957 -2.2021 2.5577 -1.3184 13.3677 -2.9497 -2.8418 0.7466 7.1724 -4.0399 -14.9211 2.8814 -2.6161 -4.3586 -0.0000 -0.0000 0.0000 -85.9231 -2.5581 7.9923 6.4067 -10.9388 -0.6141 -0.0000 -0.0000 21.1039 22.0431 -11.3488 -4.5555 -7.1250 0.0000 -0.0000 -3.5657 17.7762 2.3114 -0.0000 -0.0000 0.0000 91.6194 -4.9711 -7.3138 -10.5926 17.6612 -1.6502 0.0000 0.0000 13.7062 -15.6276 -48.5837 11.8473 7.1250 -0.0000 -0.0000 48.7141 -75.2212 -36.4942
9.3401 16.3006 19.9512 178.7760 -3.1690 -152.2030 0.0000 0.0000 0.0000 -17.0356 -18.6932 -21.8105 0.2487 3.2090 8.8613 0.1440 -3.7476 -6.8431 1.3250 -7.2899 -20.5772 0.0000 0.0000 0.0000 18.4298 13.9334 -20.6503 -0.0966 -2.0046 5.5184 -1.0380 -0.4140 -19.4134 -2.3256 9.5137 -27.4159 -5.3296 -1.8715 -29.8883 0.3088 -1.5220 -2.1721 2.5593 -1.3328 13.3982 -2.9071 -2.7685 0.6784 7.2184 -3.9474 -15.0188 2.8872 -2.5838 -4.3815 0.0000 0.0000 0.0000 -85.9047 -2.4726 5.4550 6.0368 -10.3235 -0.5458 -0.0000 -0.0000 23.3706 22.1088 -11.2167 -4.5182 -7.1250 0.0000 -0.0000 -3.5149 17.9117 2.2678 0.0000 0.0000 0.0000 91.6478 -5.1007 -7.6515 -10.5626 17.6148 -1.6411 0.0000 0.0000 13.8954 -16.3054 -50.2814 12.6807 7.1250 -0.0000 -0.0000 54.0812 -76.3675 -42.0872
9.3361 16.3005 19.9500 178.7720 -3.0687 -152.1340 0.0000 0.0000 0.0000 -17.0651 -18.6818 -21.9248 0.2562 3.2565 8.9938 0.1473 -3.7142 -6.9096 1.3808 -7.4357 -21.0127 0.0000 0.0000 0.0000 18.3663 13.9510 -20.7411 -0.0978 -2.0169 5.5523 -1.0480 -0.2312 -19.4405 -2.2956 9.4564 -27.2338 -5.3142 -1.8651 -29.9424 0.2942 -1.5173 -2.1735 2.5353 -1.3314 13.4194 -2.8474 -2.6908 0.6428 7.2184 -3.8523 -15.1381 2.8771 -2.5489 -4.4181 0.0000 -0.0000 0.0000 -85.8651 -2.1753 4.0086 5.8500 -10.0117 -0.5129 -0.0000 -0.0000 24.5630 22.1048 -10.9137 -4.3973 -7.1250 0.0000 -0.0000 -3.5074 18.2364 2.2378 0.0000 -0.0000 0.0000 91.6192 -5.1789 -7.9282 -10.4796 17.4862 -1.6161 0.0000 0.0000 13.9943 -16.8502 -50.9952 13.2442 7.1250 -0.0000 -0.0000 56.4688 -76.9055 -44.6822
9.3346 16.3007 19.9469 178.7490 -3.0246 -152.1190 0.0000 0.0000 0.0000 -17.0538 -18.7811 -21.9110 0.2600 3.2805 9.0606 0.1513 -3.7425 -6.9988 1.1265 -6.7414 -18.9515 0.0000 0.0000 0.0000 18.3201 13.9763 -20.7448 -0.0991 -2.0302 5.5891 -1.0472 -0.2395 -19.4356 -2.3576 9.5743 -27.6088 -5.3373 -1.8850 -29.9246 0.2754 -1.5355 -2.1790 2.5208 -1.3406 13.4061 -2.8135 -2.5970 0.5709 7.2082 -3.7241 -15.0679 2.8609 -2.4846 -4.3922 -0.0000 -0.0000 0.0000 -85.7830 -1.8065 3.1164 5.7020 -9.7643 -0.4874 -0.0000 -0.0000 25.2713 22.0888 -10.8038 -4.3502 -7.1250 0.0000 -0.0000 -3.5150 18.3554 2.2335 -0.0000 -0.0000 0.0000 91.5892 -5.1747 -8.8324 -10.2817 17.1790 -1.5571 0.0000 0.0000 15.0051 -15.7822 -50.4581 12.2957 7.1250 -0.0000 -0.0000 55.1015 -76.2430 -42.8449
9.3339 16.2999 19.9413 178.7560 -3.0356 -152.1320 0.0000 0.0000 0.0000 -17.0380 -18.7919 -21.8435 0.2568 3.2607 9.0053 0.1493 -3.7612 -6.9585 0.9717 -6.2757 -17.5866 0.0000 0.0000 0.0000 18.3592 13.9449 -20.6906 -0.0982 -2.0204 5.5620 -1.0467 -0.3028 -19.4538 -2.4081 9.6689 -27.9112 -5.3399 -1.9156 -29.9093 0.2712 -1.5739 -2.1759 2.5029 -1.3576 13.4060 -2.8019 -2.4454 0.4897 7.1111 -3.5051 -14.7320 2.8114 -2.3525 -4.2899 -0.0000 -0.0000 0.0000 -85.7074 -1.6085 1.2867 5.4204 -9.2920 -0.4408 -0.0000 -0.0000 26.9325 22.0353 -10.8674 -4.3637 -7.1250 0.0000 -0.0000 -3.5548 18.2919 2.2638 -0.0000 -0.0000 0.0000 91.6050 -5.1681 -9.8597 -10.0941 16.8867 -1.5022 0.0000 0.0000 16.0884 -14.8800 -49.6070 11.4402 7.1250 -0.0000 -0.0000 52.7224 -75.4789 -40.0742
9.3310 16.2985 19.9372 178.8360 -2.9916 -152.0550 0.0000 0.0000 0.0000 -16.9314 -18.8033 -21.8910 0.2530 3.2365 8.9379 0.1507 -3.6773 -6.9769 0.9940 -6.3451 -17.7892 0.0000 0.0000 0.0000 18.4271 13.9943 -20.7075 -0.0945 -1.9829 5.4583 -1.0418 -0.3073 -19.4099 -2.3539 9.5673 -27.5865 -5.2687 -1.9094 -30.0229 0.3025 -1.5935 -2.1832 2.4872 -1.3663 13.4499 -2.8357 -2.2348 0.4051 6.9494 -3.2049 -14.2809 2.7446 -2.1671 -4.1567 -0.0000 0.0000 0.0000 -85.7134 -1.4733 -1.1119 5.1457 -8.8301 -0.3976 -0.0000 -0.0000 29.0934 21.8543 -10.5818 -4.2124 -7.1250 0.0000 -0.0000 -3.6736 18.6125 2.3138 -0.0000 0.0000 0.0000 91.6010 -5.2519 -10.2516 -10.0710 16.8506 -1.4955 0.0000 0.0000 16.3237 -16.1030 -50.6922 12.5918 7.1250 -0.0000 -0.0000 55.7669 -76.4759 -43.6488
9.3255 16.2988 19.9343 178.8180 -2.8560 -151.9540 0.0000 0.0000 0.0000 -16.9725 -18.8354 -21.9568 0.2491 3.2113 8.8677 0.1558 -3.5245 -7.0670 1.0976 -6.6575 -18.7044 0.0000 0.0000 0.0000 18.3207 14.0678 -20.7726 -0.0915 -1.9506 5.3690 -1.0298 -0.2794 -19.2880 -2.3297 9.5214 -27.4405 -5.2655 -1.8807 -30.1380 0.2789 -1.5572 -2.1997 2.4707 -1.3532 13.4777 -2.7902 -2.1707 0.4147 6.9513 -3.1244 -14.3928 2.7382 -2.1369 -4.1971 -0.0000 0.0000 0.0000 -85.7189 -1.2597 -1.4300 4.9569 -8.5118 -0.3691 -0.0000 -0.0000 29.3200 21.7689 -10.3532 -4.1050 -7.1250 0.0000 -0.0000 -3.7275 18.8639 2.3270 -0.0000 0.0000 0.0000 91.6167 -5.3911 -10.4502 -10.1167 16.9220 -1.5087 0.0000 0.0000 16.2906 -19.5235 -53.4298 15.8955 7.1250 -0.0000 -0.0000 66.2441 -78.8062 -55.4338
